<svg width="51" height="18" viewBox="0 0 51 18" fill="none" xmlns="http://www.w3.org/2000/svg">
<path d="M21.36 15.08H19.61C19.4 15.51 19.02 15.86 18.32 15.86C17.51 15.86 16.86 15.33 16.78 14.38H21.48C21.51 14.17 21.53 13.96 21.53 13.75C21.53 11.84 20.22 10.57 18.37 10.57C16.47 10.57 15.15 11.86 15.15 13.89C15.15 15.91 16.51 17.21 18.37 17.21C19.95 17.2 21.02 16.26 21.36 15.08ZM18.32 11.9C19.15 11.9 19.83 12.43 19.85 13.28H16.8C16.92 12.4 17.54 11.9 18.32 11.9Z" fill="white"/>
<path d="M23.98 8.51999H22.36V17.1H23.98V8.51999Z" fill="white"/>
<path d="M29.87 13.89C29.87 15.11 29.06 15.78 28.17 15.78C27.3 15.78 26.48 15.08 26.48 13.87C26.48 12.66 27.3 12 28.17 12C29.06 12 29.87 12.67 29.87 13.89ZM24.82 13.86C24.82 15.87 26.12 17.2 27.75 17.2C28.76 17.2 29.48 16.74 29.86 16.15V17.1H31.51V8.51999H29.86V11.57C29.42 10.97 28.61 10.57 27.76 10.57C26.12 10.57 24.82 11.86 24.82 13.86Z" fill="white"/>
<path d="M37.39 13.89C37.39 15.11 36.58 15.78 35.69 15.78C34.82 15.78 34 15.08 34 13.87C34 12.66 34.82 12 35.69 12C36.57 12 37.39 12.67 37.39 13.89ZM32.33 13.86C32.33 15.87 33.63 17.2 35.25 17.2C36.27 17.2 37 16.71 37.38 16.16V17.1H39.01V10.68H37.38V11.6C37 11.07 36.29 10.58 35.26 10.58C33.63 10.57 32.33 11.86 32.33 13.86Z" fill="white"/>
<path d="M40.52 15.1C40.52 16.57 41.34 17.09 42.57 17.09H43.59V15.72H42.84C42.33 15.72 42.16 15.53 42.16 15.11V12H43.6V10.67H42.16V9.07999H40.53V10.67H39.76V12H40.53V15.1H40.52Z" fill="white"/>
<path d="M50.22 15.08H48.47C48.26 15.51 47.88 15.86 47.18 15.86C46.37 15.86 45.72 15.33 45.64 14.38H50.34C50.37 14.17 50.39 13.96 50.39 13.75C50.39 11.84 49.08 10.57 47.23 10.57C45.33 10.57 44.01 11.86 44.01 13.89C44.01 15.91 45.37 17.21 47.23 17.21C48.8 17.2 49.87 16.26 50.22 15.08ZM47.17 11.9C48 11.9 48.68 12.43 48.7 13.28H45.65C45.78 12.4 46.39 11.9 47.17 11.9Z" fill="white"/>
<path d="M4.07001 0.419983C2.22001 0.419983 0.549988 1.43998 0.549988 3.44998V14.61C0.549988 16.67 2.29001 17.73 4.10001 17.73C5.42001 17.73 6.69999 17.2 7.26999 16.08C8.34999 17.32 9.27001 17.73 10.6 17.73C12.85 17.73 14.46 16.41 14.46 14.61C14.46 13.84 14.2 13.23 13.69 12.59L10.65 8.63998L13.29 5.5C13.84 4.85 14.08 4.14 14.08 3.5C14.08 1.69 12.45 0.440002 10.31 0.440002C8.97 0.440002 8.03999 0.890004 7.17999 1.91C6.55999 0.910004 5.35001 0.419983 4.07001 0.419983ZM4.07001 2.14999C4.89001 2.14999 5.63 2.57998 5.63 3.44998V6.66998L8.87 2.79999C9.22 2.36999 9.65999 2.14999 10.3 2.14999C11.31 2.14999 12.08 2.69999 12.08 3.48999C12.08 3.77999 11.95 4.11998 11.66 4.44998L8.22 8.59L12.01 13.58C12.27 13.93 12.43 14.25 12.43 14.6C12.43 15.39 11.66 15.98 10.58 15.98C9.93999 15.98 9.45999 15.8 9.07999 15.31L5.62 10.75V14.6C5.62 15.52 4.86999 15.98 4.07999 15.98C3.28999 15.98 2.51999 15.51 2.51999 14.6V3.44C2.52999 2.58 3.28001 2.14999 4.07001 2.14999Z" fill="white"/>
</svg>
